HIERARCHY
ROOT hip
{
	OFFSET 0.000000 0.000000 0.000000 
	CHANNELS 6 Xposition Yposition Zposition Xrotation Zrotation Yrotation
	JOINT abdomen
	{
		OFFSET 0.000000 3.402643 0.000000 
		CHANNELS 3 Xrotation Zrotation Yrotation
		JOINT chest
		{
			OFFSET 0.000000 8.438565 -0.680529 
			CHANNELS 3 Xrotation Zrotation Yrotation
			JOINT neck
			{
				OFFSET 0.000000 10.207942 -0.272212 
				CHANNELS 3 Xrotation Zrotation Yrotation
				JOINT head
				{
					OFFSET 0.000000 3.130431 0.000000 
					CHANNELS 3 Xrotation Zrotation Yrotation
					End Site
					{
						OFFSET 0.000000 3.130435 0.000000 
					}
				}
			}
			JOINT lCollar
			{
				OFFSET 3.470700 6.669187 -0.816635 
				CHANNELS 3 Yrotation Zrotation Xrotation
				JOINT lShldr
				{
					OFFSET 3.198488 0.000000 0.000000 
					CHANNELS 3 Zrotation Yrotation Xrotation
					JOINT lForeArm
					{
						OFFSET 10.139888 0.000000 0.000000 
						CHANNELS 3 Yrotation Zrotation Xrotation
						JOINT lHand
						{
							OFFSET 8.370511 0.000000 0.000000 
							CHANNELS 3 Zrotation Yrotation Xrotation
							End Site
							{
								OFFSET 4.083176 0.000000 0.000000 
							}
						}
					}
				}
			}
			JOINT rCollar
			{
				OFFSET -3.470700 6.669187 -0.816635 
				CHANNELS 3 Yrotation Zrotation Xrotation
				JOINT rShldr
				{
					OFFSET -3.198488 0.000000 0.000000 
					CHANNELS 3 Zrotation Yrotation Xrotation
					JOINT rForeArm
					{
						OFFSET -10.139888 0.000000 0.000000 
						CHANNELS 3 Yrotation Zrotation Xrotation
						JOINT rHand
						{
							OFFSET -8.370511 0.000000 0.000000 
							CHANNELS 3 Zrotation Yrotation Xrotation
							End Site
							{
								OFFSET -4.083176 0.000000 0.000000 
							}
						}
					}
				}
			}
		}
	}
	JOINT lThigh
	{
		OFFSET 5.308129 -1.633274 1.361059 
		CHANNELS 3 Xrotation Zrotation Yrotation
		JOINT lShin
		{
			OFFSET -2.041588 -20.007561 0.000000 
			CHANNELS 3 Xrotation Zrotation Yrotation
			JOINT lFoot
			{
				OFFSET 0.000000 -19.190928 -1.224953 
				CHANNELS 3 Xrotation Yrotation Zrotation
				End Site
				{
					OFFSET 0.000000 -2.449906 4.627600 
				}
			}
		}
	}
	JOINT rThigh
	{
		OFFSET -5.308129 -1.633274 1.361059 
		CHANNELS 3 Xrotation Zrotation Yrotation
		JOINT rShin
		{
			OFFSET 2.041588 -20.007561 0.000000 
			CHANNELS 3 Xrotation Zrotation Yrotation
			JOINT rFoot
			{
				OFFSET 0.000000 -19.190928 -1.224953 
				CHANNELS 3 Xrotation Yrotation Zrotation
				End Site
				{
					OFFSET 0.000000 -2.449906 4.627600 
				}
			}
		}
	}
}
MOTION
Frames: 20
Frame Time: 0.011111
39.350471 52.403389 19.062050 0.198668 3.397937 -84.073189 23.501223 0.911936 -2.931631 -21.664530 1.122640 -1.022985 -16.351395 -7.938813 -2.660945 32.240707 14.670780 -5.103927 2.424333 -4.683778 1.783845 -73.812294 -29.845293 11.063407 -43.975071 6.067022 5.815718 8.524705 12.647240 -47.171272 -2.738486 -1.140572 2.095526 69.405968 24.632458 14.166850 50.665840 -7.857182 8.428594 -8.534408 -12.637552 26.488140 -2.194121 13.447422 -7.774039 17.377956 -5.858284 -3.172138 -39.823936 18.486423 11.927163 -9.536290 0.886286 18.110331 27.299816 5.471978 4.510022 -28.636959 -10.281081 -3.039629 
39.298447 52.407600 19.049717 0.035418 3.416234 -84.382545 23.508347 0.849359 -3.013958 -21.684294 1.209702 -1.036757 -16.411390 -7.958723 -2.676477 32.233803 14.745701 -5.130578 2.424333 -4.683778 1.783845 -73.960587 -29.823030 10.617813 -43.606739 5.954307 5.679772 8.524705 12.647240 -47.727917 -2.738486 -1.140572 2.095526 69.227402 24.645597 14.097826 50.729343 -7.875021 8.456436 -8.534408 -12.637552 26.829937 -1.824122 13.332114 -7.456265 17.007349 -5.858239 -3.109430 -39.755531 18.564688 11.917132 -9.604877 0.778383 18.303432 27.520384 5.466208 4.519130 -28.769617 -9.974182 -2.931030 
39.247021 52.409107 19.042803 -0.133065 3.453371 -84.735878 23.457390 0.778317 -3.106347 -21.664881 1.258040 -1.057860 -16.465693 -7.845979 -2.690118 32.151100 14.568106 -5.182693 2.424333 -4.683778 1.783845 -74.029289 -29.792461 10.248415 -43.300117 5.859955 5.570237 8.524705 12.647240 -48.284557 -2.738486 -1.140572 2.095526 69.099380 24.696844 13.985807 50.749691 -7.877236 8.467230 -8.534408 -12.637552 27.044777 -1.608516 13.183644 -7.097896 16.924595 -5.856680 -3.121704 -39.872478 18.413363 11.912433 -9.664616 0.623703 18.420982 27.620766 5.461900 4.526912 -28.936523 -9.521543 -2.790613 
39.203712 52.390160 19.045208 -0.155567 3.444171 -85.079597 23.491133 0.933967 -3.183203 -21.713764 1.284772 -1.099186 -16.466074 -7.625065 -2.663067 31.980278 14.250049 -5.139941 2.424333 -4.683778 1.783845 -74.096802 -29.713068 10.025499 -42.972904 5.752147 5.447124 8.524705 12.647240 -48.636112 -2.738486 -1.140572 2.095526 68.930069 24.680471 14.067679 50.854076 -7.898708 8.508354 -8.534408 -12.637552 27.288921 -1.307384 13.189299 -6.808124 16.686872 -5.858741 -3.070668 -39.987621 18.356606 11.941960 -9.704501 0.682365 18.435070 27.800379 5.452691 4.579422 -28.876930 -9.514959 -2.777872 
39.162815 52.374519 19.050018 -0.207297 3.426354 -85.358643 23.554047 1.079569 -3.283897 -21.752796 1.282359 -1.139089 -16.510918 -7.530157 -2.603447 31.999723 14.218018 -5.011337 2.424333 -4.683778 1.783845 -74.155098 -29.663153 9.743750 -42.646626 5.649738 5.332038 8.524705 12.647240 -49.173225 -2.738486 -1.140572 2.095526 68.821022 24.692270 13.907528 50.969376 -7.923498 8.549026 -8.534408 -12.637552 27.357279 -0.887685 13.187420 -6.236925 16.183687 -5.876828 -2.998832 -39.546471 18.600819 11.810916 -9.811289 0.721143 18.365835 28.132029 5.432933 4.614333 -28.763174 -9.488215 -2.736098 
39.122219 52.378128 19.051823 -0.766462 3.407244 -85.757401 23.665730 0.636651 -3.594398 -21.802258 1.504511 -1.179188 -16.560146 -7.543630 -2.531090 32.001480 14.227182 -4.872794 2.424333 -4.683778 1.783845 -74.343269 -29.649893 9.133094 -42.319973 5.538415 5.210845 8.524705 12.647240 -50.140026 -2.738486 -1.140572 2.095526 68.664268 24.792845 13.433113 51.011314 -7.933283 8.568474 -8.534408 -12.637552 27.054544 -0.233530 12.620962 -5.579839 15.572935 -5.897541 -2.916526 -39.023914 18.985336 11.718399 -10.052252 0.182749 18.316669 28.514666 5.402557 4.660668 -28.717875 -9.097445 -2.546837 
39.086735 52.397671 19.049419 -1.977451 3.297204 -86.241333 23.965481 -0.619132 -4.142806 -21.901245 1.912235 -1.200224 -16.639610 -7.569130 -2.491432 32.041714 14.175837 -4.816496 2.424333 -4.683778 1.783845 -74.491768 -29.637356 8.667957 -42.075756 5.458908 5.121418 8.524705 12.647240 -50.804085 -2.738486 -1.140572 2.095526 68.477020 24.864658 13.172471 51.095192 -7.952744 8.608783 -8.534408 -12.637552 27.025248 0.683955 11.311243 -5.257273 14.990454 -5.918122 -2.827974 -38.909370 19.339741 11.811494 -10.320329 -1.074638 18.512257 28.965008 5.382992 4.706813 -29.060984 -8.284751 -2.282315 
39.049442 52.406696 19.042803 -2.541533 3.268864 -86.591682 24.102987 -1.087214 -4.520394 -21.950550 2.055294 -1.257349 -16.723375 -7.462193 -2.448891 32.124245 13.966297 -4.754106 2.424333 -4.683778 1.783845 -74.470482 -29.579149 8.520998 -41.882259 5.394887 5.058304 8.524705 12.647240 -50.882214 -2.738486 -1.140572 2.095526 68.370323 24.983824 13.149049 51.095192 -7.952744 8.608783 -8.534408 -12.637552 27.113140 1.260009 10.739497 -4.670810 14.455301 -5.915347 -2.759599 -38.245457 19.844036 11.667556 -10.495212 -1.592383 18.776239 29.352650 5.374232 4.777612 -29.390465 -7.796508 -2.162021 
39.015755 52.399479 19.030771 -2.461722 3.426953 -86.850037 23.906898 -0.654802 -4.900814 -21.951178 2.263621 -1.403778 -16.745617 -7.558635 -2.254198 32.067673 13.695230 -4.497601 2.424333 -4.683778 1.783845 -74.876015 -29.532465 7.334487 -41.739864 5.345617 5.002545 8.524705 12.647240 -51.790417 -2.738486 -1.140572 2.095526 67.947517 25.196594 13.461669 51.074848 -7.950655 8.597926 -8.534408 -12.637552 27.064308 1.308656 10.872965 -3.829573 14.134604 -5.925678 -2.712103 -37.393501 20.203911 11.358443 -10.763268 -1.398910 18.886751 29.613316 5.359198 4.797515 -29.378532 -7.857037 -2.169654 
38.964336 52.395569 19.023254 -2.424117 3.556657 -87.132584 23.727812 -0.152881 -5.381620 -21.923151 2.646563 -1.595929 -16.908649 -8.197579 -1.863916 32.211227 13.824378 -3.924540 2.424333 -4.683778 1.783845 -75.577904 -29.440960 6.008584 -41.678738 5.323445 4.978294 8.524705 12.647240 -52.727917 -2.738486 -1.140572 2.095526 67.246391 25.423899 14.090672 51.095192 -7.952744 8.608783 -8.534408 -12.637552 27.171732 1.171683 10.909732 -3.149480 14.324160 -5.927106 -2.738723 -37.030819 20.276804 11.186958 -10.896409 -1.318830 19.020798 29.684835 5.344706 4.809800 -29.394089 -7.736245 -2.130340 
38.901787 52.385643 19.023855 -2.440093 3.501423 -87.452332 23.747555 0.121437 -5.543790 -21.894413 2.810151 -1.670305 -17.114244 -8.822723 -1.589430 32.553257 14.487584 -3.426580 2.424333 -4.683778 1.783845 -75.855690 -29.445372 5.692963 -41.496014 5.263875 4.915027 8.524705 12.647240 -53.147835 -2.738486 -1.140572 2.095526 66.901085 25.556866 14.249754 51.106087 -7.956240 8.608232 -8.534408 -12.637552 27.308453 1.093723 10.881748 -2.777572 14.843716 -5.917932 -2.803971 -37.376640 19.911596 11.227650 -10.755308 -1.310395 19.079027 29.624945 5.344682 4.814266 -29.339323 -7.531949 -2.015154 
38.833820 52.377827 19.020247 -2.096378 3.683714 -87.747055 23.430552 0.627676 -5.344772 -21.766811 2.676836 -1.668010 -17.088417 -8.899591 -1.581482 32.661930 14.827347 -3.346173 2.424333 -4.683778 1.783845 -75.775406 -29.407850 5.993805 -41.373852 5.218991 4.867913 8.524705 12.647240 -53.177135 -2.738486 -1.140572 2.095526 66.872696 25.625725 13.985013 51.084496 -7.948633 8.599589 -8.534408 -12.637552 27.308453 0.635119 11.252740 -2.256765 15.416759 -5.897548 -2.882951 -37.604790 19.446846 11.124039 -10.825971 -0.987551 19.010532 29.534393 5.354035 4.798973 -29.268412 -7.204864 -1.845713 
38.764950 52.374218 19.006714 -1.538201 4.157922 -87.978508 22.707876 1.400384 -5.135566 -21.551418 2.583967 -1.693202 -17.030499 -8.926338 -1.583843 32.646145 14.980922 -3.316437 2.424333 -4.683778 1.783845 -75.843788 -29.367460 5.839218 -41.323124 5.202762 4.852482 8.524705 12.647240 -53.313858 -2.738486 -1.140572 2.095526 66.774284 25.676254 13.717767 51.095192 -7.952744 8.608783 -8.534408 -12.637552 27.142435 -0.272700 11.926406 -1.300856 16.048077 -5.877273 -2.996267 -36.865623 19.426266 10.689712 -11.199124 -0.449533 18.918465 29.394156 5.363429 4.778401 -29.147251 -6.919429 -1.678474 
38.702702 52.363995 19.015135 -1.314640 4.317023 -88.238548 22.459944 1.827624 -5.030800 -21.492561 2.526404 -1.707859 -16.921783 -8.715879 -1.655873 32.597797 14.815496 -3.426628 2.424333 -4.683778 1.783845 -75.883430 -29.366695 5.576494 -41.252319 5.181205 4.828318 8.524705 12.647240 -53.597054 -2.738486 -1.140572 2.095526 66.713387 25.618690 13.627723 51.189987 -7.975533 8.647281 -8.534408 -12.637552 27.269388 -0.682743 12.204391 -0.359385 16.664146 -5.864704 -3.069687 -36.275562 19.280657 10.321388 -11.223843 -0.227438 18.895794 29.274775 5.364522 4.768299 -29.024137 -6.843441 -1.604038 
38.643757 52.362492 19.044004 -1.064648 4.233001 -88.462479 22.568295 2.374127 -4.915333 -21.550262 2.269802 -1.729846 -16.834246 -8.309615 -1.782113 32.599552 14.565537 -3.602823 2.424333 -4.683778 1.783845 -75.762016 -29.271357 5.808026 -41.292477 5.191779 4.845854 8.524705 12.647240 -53.538464 -2.738486 -1.140572 2.095526 66.782166 25.578442 13.542336 51.272820 -7.988571 8.680220 -8.534408 -12.637552 27.347513 -0.760647 12.443495 0.254292 17.182972 -5.855252 -3.154092 -36.109428 19.173374 10.179363 -10.961729 0.007461 18.934721 29.194401 5.373932 4.744154 -29.018465 -6.664635 -1.522671 
38.584518 52.360085 19.063551 -1.143821 3.938060 -88.767113 22.947691 2.531343 -4.970551 -21.647379 2.109538 -1.756642 -16.808414 -7.945774 -1.863383 32.640541 14.344784 -3.694857 2.424333 -4.683778 1.783845 -75.561333 -29.177540 6.452798 -41.363518 5.212697 4.860304 8.524705 12.647240 -52.991589 -2.738486 -1.140572 2.095526 66.892380 25.615620 13.243539 51.283718 -7.992023 8.679692 -8.534408 -12.637552 27.083841 -0.517071 12.331679 0.672044 17.651619 -5.838957 -3.203958 -36.100761 19.194469 10.182446 -10.546290 -0.097778 18.914097 29.144758 5.373735 4.739741 -28.951803 -6.328022 -1.348514 
38.523167 52.342941 19.061747 -1.433011 3.614289 -89.136513 23.362318 2.338349 -5.084034 -21.696642 2.234478 -1.773457 -16.751949 -7.773379 -1.913775 32.642559 14.154217 -3.790942 2.424333 -4.683778 1.783845 -75.529640 -29.100008 7.028259 -41.455608 5.254020 4.907135 8.524705 12.647240 -52.376354 -2.738486 -1.140572 2.095526 66.824013 25.675400 12.830882 51.263180 -7.990615 8.678548 -8.534408 -12.637552 26.917828 -0.224871 12.039578 1.265621 18.174831 -5.840626 -3.261569 -35.990719 19.068941 10.088419 -10.150625 -0.393124 18.849491 29.113216 5.388084 4.721137 -28.711531 -6.130048 -1.181017 
38.456100 52.330013 19.048515 -1.215133 3.747134 -89.347755 23.176596 2.688694 -4.930163 -21.608860 2.276227 -1.771587 -16.621197 -7.686290 -2.030779 32.556595 14.006063 -4.022060 2.424333 -4.683778 1.783845 -75.607933 -29.059429 7.196185 -41.587551 5.297675 4.954705 8.524705 12.647240 -52.288464 -2.738486 -1.140572 2.095526 66.645004 25.678461 12.453349 51.252472 -7.986545 8.669332 -8.534408 -12.637552 26.810406 -0.615789 12.383157 2.013544 18.757357 -5.841648 -3.352679 -35.575901 18.866783 9.783983 -10.181966 -0.128496 18.875715 29.084824 5.373709 4.744203 -28.556780 -6.220371 -1.199176 
38.393246 52.322796 19.051523 -0.943701 3.861472 -89.506554 23.010942 3.211596 -4.818636 -21.579132 2.159265 -1.785323 -16.526485 -7.527293 -2.102663 32.507088 13.830486 -4.162031 2.424333 -4.683778 1.783845 -75.627266 -29.039522 7.265022 -41.739864 5.345617 5.002545 8.524705 12.647240 -52.347057 -2.738486 -1.140572 2.095526 66.544525 25.631334 12.352104 51.283718 -7.992023 8.679692 -8.534408 -12.637552 26.878765 -1.112864 12.727169 2.677435 19.463259 -5.799159 -3.440002 -35.376488 18.446466 9.468352 -10.179086 0.153256 18.845102 29.014347 5.383143 4.720921 -28.437872 -6.223908 -1.170602 
38.331600 52.314972 19.053028 -0.845988 3.800885 -89.720581 23.131062 3.544605 -4.904261 -21.608133 2.087702 -1.842245 -16.547150 -7.318945 -2.079423 32.656334 13.718278 -4.076541 2.424333 -4.683778 1.783845 -75.538071 -29.041233 7.546076 -41.851795 5.383580 5.041694 8.524705 12.647240 -51.878307 -2.738486 -1.140572 2.095526 66.485268 25.651876 12.701519 51.283718 -7.992023 8.679692 -8.534408 -12.637552 27.279156 -1.406272 12.906507 3.393829 20.344263 -5.773013 -3.554151 -34.992561 18.246124 9.193201 -9.969536 0.244219 18.849140 28.904940 5.385550 4.701339 -28.389473 -6.105416 -1.107248 
